<svg id="Capa_1" enable-background="new 0 0 512 512" height="512" viewBox="0 0 512 512" width="512" xmlns="http://www.w3.org/2000/svg" xmlns:xlink="http://www.w3.org/1999/xlink"><linearGradient id="SVGID_1_" gradientUnits="userSpaceOnUse" x1="256" x2="256" y1="512" y2="0"><stop offset="0" stop-color="#ffe59a"/><stop offset="1" stop-color="#ffffd5"/></linearGradient><linearGradient id="SVGID_2_" gradientUnits="userSpaceOnUse" x1="255.999" x2="255.999" y1="113.881" y2="398.119"><stop offset="0" stop-color="#fd5900"/><stop offset="1" stop-color="#ffde00"/></linearGradient><g><circle cx="256" cy="256" fill="url(#SVGID_1_)" r="256"/><g><g><path d="m113.88 291.53h8.882v-44.412c0-23.65 10.522-44.707 26.898-59.356-25.72 7.621-44.663 31.198-44.663 59.356v35.53c.001 4.909 3.973 8.882 8.883 8.882zm266.473 62.177h-19.022c-3.962-15.297-17.737-26.647-34.273-26.647s-30.311 11.35-34.273 26.647h-91.338c-3.962-15.297-17.737-26.647-34.273-26.647s-30.311 11.35-34.273 26.647h-19.021c-4.91 0-8.882 3.973-8.882 8.882 0 4.91 3.973 8.883 8.882 8.883h19.021c3.962 15.298 17.737 26.647 34.273 26.647s30.311-11.349 34.273-26.647h91.338c3.962 15.298 17.737 26.647 34.273 26.647s30.311-11.349 34.273-26.647h19.022c4.91 0 8.882-3.973 8.882-8.883 0-4.909-3.973-8.882-8.882-8.882zm-213.178 17.765c-4.905 0-8.882-3.978-8.882-8.883 0-4.906 3.977-8.882 8.882-8.882s8.882 3.976 8.882 8.882c0 4.905-3.977 8.883-8.882 8.883zm159.883 0c-4.905 0-8.882-3.978-8.882-8.883 0-4.906 3.977-8.882 8.882-8.882s8.883 3.976 8.883 8.882c0 4.905-3.978 8.883-8.883 8.883zm71.06-257.591h-53.295c-34.281 0-62.177 27.896-62.177 62.177v8.883h-79.942c-34.281 0-62.177 27.896-62.177 62.177v69.589c7.871-4.589 16.897-7.412 26.647-7.412 3.031 0 5.995.27 8.882.761v-27.408c0-4.91 3.973-8.883 8.883-8.883 14.694 0 26.647-11.953 26.647-26.647 0-4.91 3.973-8.883 8.882-8.883 4.91 0 8.883 3.973 8.883 8.883 0 10.024-3.434 19.208-9.056 26.647h88.998c4.91 0 8.882 3.973 8.882 8.883v27.394c2.886-.49 5.853-.747 8.882-.747 9.75 0 18.777 2.823 26.647 7.412v-96.237h26.647c4.91 0 8.882-3.973 8.882-8.882v-53.294c11.068-8.327 17.765-21.512 17.765-35.53.002-4.91-3.971-8.883-8.88-8.883z" fill="url(#SVGID_2_)"/></g></g></g></svg>